<svg width="35" height="35" viewBox="0 0 35 35" fill="none" xmlns="http://www.w3.org/2000/svg">
<g clip-path="url(#clip0_1_145)">
<path d="M17.5 0C7.83444 0 0 7.83444 0 17.5C0 27.1656 7.83444 35 17.5 35C27.1656 35 35 27.1644 35 17.5C35 7.83556 27.1656 0 17.5 0ZM17.5 32.8128C9.04333 32.8128 2.18722 25.9572 2.18722 17.5C2.18722 9.04333 9.04278 2.18722 17.5 2.18722C25.9567 2.18722 32.8128 9.04278 32.8128 17.5C32.8128 25.9567 25.9572 32.8128 17.5 32.8128ZM24.0628 16.4056H18.5939V10.9372C18.5848 10.6531 18.4656 10.3837 18.2615 10.186C18.0573 9.98822 17.7842 9.87765 17.5 9.87765C17.2158 9.87765 16.9427 9.98822 16.7385 10.186C16.5344 10.3837 16.4152 10.6531 16.4061 10.9372V16.4056H10.9378C10.6537 16.4146 10.3843 16.5338 10.1865 16.738C9.98877 16.9421 9.8782 17.2152 9.8782 17.4994C9.8782 17.7837 9.98877 18.0568 10.1865 18.2609C10.3843 18.4651 10.6537 18.5843 10.9378 18.5933H16.4061V24.0617C16.4152 24.3458 16.5344 24.6152 16.7385 24.8129C16.9427 25.0107 17.2158 25.1212 17.5 25.1212C17.7842 25.1212 18.0573 25.0107 18.2615 24.8129C18.4656 24.6152 18.5848 24.3458 18.5939 24.0617V18.5944H24.0622C24.3463 18.5854 24.6157 18.4662 24.8135 18.262C25.0112 18.0579 25.1218 17.7848 25.1218 17.5006C25.1218 17.2163 25.0112 16.9433 24.8135 16.7391C24.6157 16.5349 24.3463 16.4157 24.0622 16.4067L24.0628 16.4056Z" fill="#50E3C2"/>
</g>
<defs>
<clipPath id="clip0_1_145">
<rect width="35" height="35" fill="white"/>
</clipPath>
</defs>
</svg>
