<svg width="45" height="45" viewBox="0 0 45 45" fill="none" xmlns="http://www.w3.org/2000/svg">
<g clip-path="url(#clip0_1_54)">
<path fill-rule="evenodd" clip-rule="evenodd" d="M22.525 1.98087C11.2545 1.92117 2.05407 11.0406 1.99225 22.4687C1.93134 33.7591 11.0218 42.9768 22.4886 43.0374C33.7586 43.0957 42.9591 33.9777 43.0213 22.5486C43.0823 11.2582 33.9918 2.04056 22.525 1.98087ZM21.0132 44.9999C20.1904 44.8838 19.3636 44.7915 18.5463 44.6473C14.2286 43.885 10.4572 42.0015 7.24498 39.0287C3.63361 35.6868 1.30407 31.5909 0.418158 26.752C-0.796843 20.114 0.630885 14.0464 4.76679 8.69781C8.20316 4.25383 12.7336 1.45556 18.2577 0.427449C24.8927 -0.807756 30.9636 0.632704 36.3136 4.76673C40.745 8.19178 43.4845 12.7138 44.5872 18.2098C44.7445 18.995 44.8059 19.7995 44.9154 20.5953C44.935 20.7362 44.9713 20.8754 45 21.0154V24.0024C44.9713 24.1424 44.9345 24.2811 44.9154 24.4226C44.8104 25.2032 44.7523 25.993 44.6 26.7648C43.6491 31.5909 41.3741 35.6932 37.7636 39.0329C34.5522 42.0038 30.7822 43.8864 26.4663 44.6473C25.6491 44.7915 24.8227 44.8838 24.0004 44.9999H21.0132Z" fill="#1E7B7D"/>
<path fill-rule="evenodd" clip-rule="evenodd" d="M12.0227 33.9355C12.0309 33.4355 11.5491 32.9441 11.0464 32.9391C10.5036 32.9336 9.70682 33.7119 9.69727 34.2569C9.68909 34.746 10.1864 35.252 10.6836 35.2598C11.2236 35.2681 12.0136 34.4865 12.0227 33.9355ZM34.3077 9.73286C33.7868 9.78061 33.4536 10.1305 33.1668 10.5259C32.8405 10.9759 32.9591 11.5457 33.4191 11.8635C34.0164 12.2754 34.9345 11.8566 35.2291 11.0379C35.4445 10.4395 34.9632 9.74801 34.3077 9.73286ZM12.0241 11.0663C12.0223 10.6393 11.4718 9.97255 10.9923 9.80036C10.615 9.6649 10.2905 9.77235 10.0245 10.0286C9.74591 10.2977 9.56091 10.6705 9.78364 11.0135C10.0209 11.3795 10.3327 11.7574 10.705 11.9627C11.275 12.2781 12.0264 11.7225 12.0241 11.0663ZM21.4727 38.9503C21.5323 39.1881 21.5527 39.4457 21.66 39.6592C21.8645 40.0656 22.3482 40.2351 22.7955 40.1083C23.2582 39.9779 23.4905 39.5596 23.4823 38.8713C23.475 38.2505 23.2314 37.867 22.7686 37.7486C22.0264 37.558 21.5141 38.0452 21.4727 38.9503ZM39.0059 23.5203C39.2445 23.4597 39.5027 23.439 39.7164 23.3307C40.1259 23.124 40.2932 22.6456 40.1636 22.1974C40.0309 21.7373 39.6109 21.5077 38.92 21.516C38.2977 21.5238 37.9145 21.7671 37.7968 22.2305C37.6082 22.9711 38.0959 23.479 39.0059 23.5203ZM5.99364 21.4723C5.755 21.532 5.49682 21.5532 5.28273 21.6606C4.87545 21.8659 4.70636 22.348 4.83455 22.7939C4.96682 23.2544 5.38636 23.4845 6.07727 23.4762C6.7 23.4689 7.08318 23.2255 7.20182 22.7631C7.39091 22.022 6.90318 21.5141 5.99364 21.4723ZM21.5164 6.06306C21.5164 6.74633 21.7582 7.13296 22.2591 7.24684C22.8205 7.37541 23.3541 7.04617 23.4595 6.50617C23.63 5.63648 23.3232 4.97663 22.6982 4.87056C21.9682 4.74658 21.5164 5.20255 21.5164 6.06306ZM23.4823 17.5472V17.2828C23.4809 15.9176 23.4882 14.552 23.4732 13.1868C23.4677 12.6542 23.1327 12.2891 22.6368 12.2042C22.2286 12.1339 21.7586 12.3805 21.6082 12.7938C21.5309 13.0068 21.52 13.2525 21.5195 13.4835C21.5141 16.3612 21.5273 19.2389 21.5059 22.1161C21.5018 22.6777 21.6905 23.085 22.0823 23.4735C25.4959 26.859 28.8973 30.2579 32.3023 33.6522C32.9573 34.3056 33.5095 34.3915 33.9723 33.9139C34.425 33.4456 34.3368 32.9161 33.6986 32.2797C30.3977 28.9887 27.0991 25.6955 23.7909 22.4118C23.5623 22.1855 23.4718 21.9618 23.4755 21.6432C23.4918 20.278 23.4823 18.9124 23.4823 17.5472Z" fill="#1E7B7D"/>
<path fill-rule="evenodd" clip-rule="evenodd" d="M23.5082 17.4977C23.5082 18.8679 23.5173 20.2376 23.5014 21.6074C23.4977 21.9265 23.5864 22.151 23.8105 22.3788C27.0582 25.6725 30.2959 28.9763 33.5359 32.2779C34.1623 32.9161 34.2491 33.4479 33.8045 33.9172C33.3505 34.3965 32.8086 34.3102 32.1655 33.6554C28.8232 30.2497 25.4845 26.8398 22.1336 23.4432C21.7491 23.0533 21.5641 22.6451 21.5682 22.0817C21.5891 19.1948 21.5759 16.3079 21.5818 13.4215C21.5818 13.1896 21.5923 12.943 21.6682 12.729C21.8159 12.3144 22.2773 12.0674 22.6777 12.1376C23.165 12.223 23.4936 12.589 23.4991 13.1235C23.5136 14.4932 23.5064 15.863 23.5082 17.2327V17.4977Z" fill="#1E7B7D"/>
<path fill-rule="evenodd" clip-rule="evenodd" d="M21.5682 6.06352C21.5682 5.20255 21.9914 4.74658 22.675 4.87056C23.26 4.97617 23.5477 5.63694 23.3886 6.50663C23.2895 7.04663 22.7895 7.37587 22.2641 7.24775C21.795 7.13296 21.5682 6.7477 21.5682 6.06352Z" fill="#1E7B7D"/>
<path fill-rule="evenodd" clip-rule="evenodd" d="M5.96817 21.2878C6.85772 21.3318 7.33499 21.8787 7.14999 22.6759C7.03408 23.1732 6.65908 23.4349 6.04999 23.4427C5.37408 23.4519 4.96363 23.2039 4.83408 22.7089C4.70863 22.2291 4.87408 21.7107 5.27272 21.4903C5.48181 21.3745 5.73454 21.353 5.96817 21.2878Z" fill="#1E7B7D"/>
<path fill-rule="evenodd" clip-rule="evenodd" d="M39.0327 23.7122C38.1427 23.6682 37.6654 23.1222 37.85 22.3255C37.9654 21.8273 38.34 21.5651 38.9486 21.5573C39.6245 21.5481 40.035 21.7951 40.165 22.2901C40.2918 22.7718 40.1282 23.2866 39.7277 23.5088C39.5186 23.625 39.2659 23.647 39.0327 23.7122Z" fill="#1E7B7D"/>
<path fill-rule="evenodd" clip-rule="evenodd" d="M21.5682 38.9585C21.6064 38.0599 22.0818 37.5764 22.7704 37.7651C23.1991 37.8826 23.425 38.2638 23.4318 38.88C23.4391 39.5632 23.2236 39.9788 22.795 40.1088C22.38 40.2346 21.9314 40.0661 21.7418 39.6629C21.6418 39.4507 21.6236 39.1945 21.5682 38.9585Z" fill="#1E7B7D"/>
<path fill-rule="evenodd" clip-rule="evenodd" d="M12.2486 11.0902C12.2513 11.7785 11.4813 12.3612 10.8972 12.0306C10.5159 11.8148 10.1963 11.419 9.95315 11.0351C9.72543 10.6751 9.91452 10.2839 10.2 10.002C10.4727 9.73287 10.8054 9.62037 11.1913 9.76226C11.6827 9.94272 12.2468 10.6421 12.2486 11.0902Z" fill="#1E7B7D"/>
<path fill-rule="evenodd" clip-rule="evenodd" d="M34.2464 9.70071C34.8532 9.71679 35.2991 10.4487 35.0995 11.0824C34.8268 11.9489 33.9759 12.392 33.4232 11.9558C33.2148 11.7928 33.075 11.5565 33.0316 11.294C32.9882 11.0315 33.0445 10.7621 33.1891 10.5396C33.455 10.1218 33.7636 9.75122 34.2464 9.70071Z" fill="#1E7B7D"/>
<path fill-rule="evenodd" clip-rule="evenodd" d="M11.9818 33.9153C11.9741 34.4916 11.25 35.308 10.7555 35.2993C10.3 35.2915 9.84454 34.7629 9.85227 34.2514C9.86091 33.682 10.5905 32.8684 11.0882 32.8739C11.5486 32.8798 11.9891 33.3932 11.9818 33.9153Z" fill="#1E7B7D"/>
</g>
<defs>
<clipPath id="clip0_1_54">
<rect width="45" height="45" fill="white"/>
</clipPath>
</defs>
</svg>
