<svg width="101" height="101" viewBox="0 0 101 101" fill="none" xmlns="http://www.w3.org/2000/svg">
<g clip-path="url(#clip0_32_2)">
<path d="M50.5 0C22.608 0 0 22.608 0 50.5C0 78.392 22.608 101 50.5 101C78.392 101 101 78.3888 101 50.5C101 22.6112 78.392 0 50.5 0ZM50.5 94.6883C26.0965 94.6883 6.3117 74.9051 6.3117 50.5C6.3117 26.0965 26.0949 6.3117 50.5 6.3117C74.9035 6.3117 94.6883 26.0949 94.6883 50.5C94.6883 74.9035 74.9051 94.6883 50.5 94.6883ZM69.4383 47.3417H53.6567V31.5617C53.6305 30.7419 53.2865 29.9645 52.6974 29.3938C52.1082 28.8231 51.3202 28.5041 50.5 28.5041C49.6798 28.5041 48.8918 28.8231 48.3026 29.3938C47.7135 29.9645 47.3695 30.7419 47.3433 31.5617V47.3417H31.5633C30.7435 47.3679 29.9661 47.7119 29.3954 48.301C28.8247 48.8902 28.5057 49.6782 28.5057 50.4984C28.5057 51.3186 28.8247 52.1066 29.3954 52.6958C29.9661 53.2849 30.7435 53.6289 31.5633 53.655H47.3433V69.4351C47.3695 70.2549 47.7135 71.0323 48.3026 71.603C48.8918 72.1736 49.6798 72.4927 50.5 72.4927C51.3202 72.4927 52.1082 72.1736 52.6974 71.603C53.2865 71.0323 53.6305 70.2549 53.6567 69.4351V53.6583H69.4367C70.2565 53.6321 71.0339 53.2881 71.6046 52.699C72.1752 52.1098 72.4943 51.3218 72.4943 50.5016C72.4943 49.6814 72.1752 48.8934 71.6046 48.3042C71.0339 47.7151 70.2565 47.3711 69.4367 47.345L69.4383 47.3417Z" fill="#1E0E48"/>
</g>
<defs>
<clipPath id="clip0_32_2">
<rect width="101" height="101" fill="white"/>
</clipPath>
</defs>
</svg>
