<svg width="50" height="45" viewBox="0 0 50 45" fill="none" xmlns="http://www.w3.org/2000/svg">
<g clip-path="url(#clip0_1_78)">
<path fill-rule="evenodd" clip-rule="evenodd" d="M2.27255 37.5346C2.2769 37.384 2.25085 37.2341 2.19595 37.0939C2.14105 36.9536 2.05844 36.8259 1.95305 36.7183C1.84765 36.6106 1.72164 36.5254 1.58255 36.4676C1.44346 36.4098 1.29414 36.3806 1.14353 36.3818C0.549221 36.3849 0.0195484 36.8999 0.00238072 37.4902C-0.014282 38.0925 0.539628 38.6465 1.15564 38.6434C1.44999 38.6419 1.73195 38.5248 1.94084 38.3174C2.14974 38.11 2.26885 37.8289 2.27255 37.5346ZM2.27255 31.1396C2.26899 30.8454 2.15007 30.5643 1.94138 30.3569C1.73269 30.1494 1.45091 30.0321 1.15665 30.0303C0.540133 30.0273 -0.0137771 30.5807 0.00238072 31.1831C0.0180336 31.7728 0.547707 32.2889 1.14252 32.2924C1.77873 32.2964 2.28316 31.7824 2.27255 31.1396ZM2.27205 24.8144C2.27548 24.52 2.16314 24.2361 1.95923 24.0238C1.75532 23.8114 1.47616 23.6877 1.1819 23.6793C0.565884 23.6631 0.00591523 24.1973 0.00288564 24.8063C-0.000648879 25.4122 0.55831 25.954 1.17382 25.9414C1.46813 25.935 1.74818 25.8134 1.95367 25.6026C2.15917 25.3918 2.27318 25.1087 2.27205 24.8144ZM19.0343 42.7303C18.0527 42.7303 17.0711 42.7238 16.0895 42.7329C15.3472 42.7394 14.8575 43.1838 14.8438 43.8371C14.8292 44.5173 15.3271 44.9914 16.0935 44.9945C18.0567 45.002 20.0199 45.0015 21.9831 44.9945C22.7253 44.9919 23.2146 44.5441 23.2282 43.8902C23.2434 43.21 22.7455 42.7394 21.979 42.7329C20.9974 42.7238 20.0158 42.7303 19.0343 42.7303ZM13.9854 38.646H18.2925C19.5579 38.646 20.8237 38.6571 22.0891 38.6394C22.7682 38.6303 23.2408 38.1279 23.2282 37.4881C23.2166 36.8752 22.75 36.4167 22.0972 36.3823C21.9275 36.3733 21.7574 36.3793 21.5872 36.3793H6.51347C6.28676 36.3793 6.01511 36.3086 5.84343 36.4081C5.50563 36.603 5.08603 36.8408 4.9598 37.1625C4.84366 37.4589 4.95879 37.9855 5.1749 38.2329C5.39454 38.4839 5.86161 38.6242 6.22213 38.6288C8.8094 38.6611 11.3977 38.646 13.9854 38.646ZM18.5803 32.2949C19.7518 32.2949 20.9227 32.306 22.0936 32.2884C22.748 32.2783 23.2146 31.8016 23.2282 31.1891C23.2429 30.5504 22.7692 30.0662 22.0921 30.0303C21.9608 30.0237 21.828 30.0283 21.6958 30.0278H14.0243L6.39532 30.0283C6.20647 30.0283 5.9737 29.9677 5.83787 30.0545C5.50714 30.2656 5.0825 30.4933 4.95828 30.8155C4.84366 31.1124 4.96081 31.6385 5.17793 31.8849C5.39858 32.1354 5.86565 32.2737 6.22667 32.2778C8.83313 32.3096 11.4401 32.2949 14.0465 32.2949H18.5803ZM14.1041 23.6768H9.45722C8.30497 23.6768 7.15272 23.6651 6.00046 23.6833C5.34557 23.6934 4.878 24.1686 4.86336 24.7805C4.84821 25.4183 5.32133 25.905 5.99794 25.9409C6.16759 25.95 6.33826 25.9439 6.50792 25.9439L21.5816 25.9434C21.8084 25.9434 22.081 26.0141 22.2517 25.9146C22.589 25.7187 23.0081 25.4799 23.1328 25.1572C23.2479 24.8608 23.1318 24.3347 22.9152 24.0878C22.695 23.8373 22.2285 23.6985 21.8674 23.6939C19.2807 23.6621 16.6919 23.6768 14.1041 23.6768Z" fill="#1E7B7D"/>
<path fill-rule="evenodd" clip-rule="evenodd" d="M28.2482 41.3791L32.01 38.6121L28.7698 36.7439L28.2482 41.3791ZM46.2869 15.1348C46.7222 14.3391 47.1766 13.621 47.5199 12.853C48.0001 11.7791 47.5654 10.5192 46.5757 9.88152C45.5744 9.23622 44.1758 9.36245 43.4376 10.287C42.871 10.9959 42.455 11.8245 41.9531 12.6309L46.2869 15.1348ZM45.123 17.1162L40.8271 14.6329L29.3863 34.4449L33.6884 36.9226L45.123 17.1162ZM49.8946 12.2345C49.2963 13.465 48.5586 15.0131 47.88 16.1972C43.6133 23.6429 39.3502 30.9074 35.0466 38.3319C34.8179 38.7262 34.5664 39.055 34.2009 39.3296C31.9973 40.9858 29.663 42.7288 27.4479 44.3688C26.9773 44.7172 26.9758 44.9147 26.4199 44.585C25.9856 44.3274 25.9856 44.3274 26.0154 43.8639C26.1901 41.1196 26.5557 38.2294 26.8157 35.5073C26.893 34.7019 27.3555 34.3545 27.7453 33.68C32.2594 25.8762 36.9149 17.968 41.4163 10.1572C42.1869 8.81914 42.6777 7.64215 44.2308 7.31394C46.8731 6.75498 49.3549 8.39248 49.8951 11.054C49.9133 11.1438 49.9628 11.2272 49.9981 11.314L49.8946 12.2345Z" fill="#1E7B7D"/>
<path fill-rule="evenodd" clip-rule="evenodd" d="M18.545 9.02566C18.544 7.79362 17.9088 6.96958 16.9095 6.90242C15.888 6.83375 15.1362 7.42452 14.9469 8.44398C14.7065 9.7366 15.1867 10.8146 16.1713 11.1029C16.4642 11.1888 16.8095 11.2095 17.1075 11.1474C18.0789 10.9434 18.5455 10.2234 18.545 9.02566ZM21.6251 16.3436C20.4809 14.4718 18.8192 13.5049 16.6919 13.5195C14.5899 13.5332 12.9483 14.4976 11.8496 16.3275C14.5106 18.4371 18.5243 18.6759 21.6251 16.3436ZM23.4822 14.338C25.3999 12.035 25.6423 7.28213 22.5112 4.12631C19.3923 0.982603 14.3687 0.904339 11.126 3.96069C7.91164 6.99129 7.93335 11.7967 10.2076 14.6294C11.0417 13.4216 12.1516 12.543 13.4851 11.8891C12.6822 10.855 12.6014 9.70429 12.6474 8.51366C12.7317 6.347 14.6045 4.53732 16.752 4.57267C18.9525 4.60852 20.7399 6.37881 20.8152 8.55658C20.8566 9.74417 20.7521 10.8828 20.0189 11.8487C20.645 12.2658 21.2338 12.6354 21.7962 13.0414C22.3794 13.4615 22.9369 13.9164 23.4822 14.338ZM16.6783 19.4636C13.6159 19.4606 11.1801 18.3679 9.43048 16.4219C7.88842 14.7061 6.84523 12.5698 6.84674 9.86435C6.84775 7.64265 7.63393 5.64363 8.767 4.05309C10.5711 1.52136 13.4906 -0.00352839 17.0363 6.13105e-06C18.3784 0.00152093 19.5185 0.332251 20.5758 0.802342C21.9559 1.41113 23.1723 2.33765 24.126 3.50625C25.5216 5.2114 26.5128 7.22962 26.5093 9.86435C26.5063 12.801 25.4964 15.0505 23.7008 16.7996C21.9715 18.4835 19.5104 19.4666 16.6783 19.4636Z" fill="#1E7B7D"/>
<path fill-rule="evenodd" clip-rule="evenodd" d="M13.9855 38.646C11.3977 38.646 8.80992 38.6611 6.22214 38.6288C5.86162 38.6238 5.39456 38.4834 5.17492 38.2324C4.95881 37.985 4.84368 37.4589 4.95982 37.162C5.08605 36.8408 5.50565 36.603 5.84345 36.4081C6.01512 36.3086 6.28678 36.3793 6.51349 36.3793H21.5872C21.7574 36.3793 21.9275 36.3728 22.0972 36.3819C22.7501 36.4167 23.2166 36.8752 23.2282 37.4877C23.2409 38.1274 22.7687 38.6298 22.0891 38.6394C20.8238 38.6571 19.5579 38.6455 18.292 38.646H13.9855Z" fill="#1E7B7D"/>
<path fill-rule="evenodd" clip-rule="evenodd" d="M19.0342 42.7303C20.0158 42.7303 20.9974 42.7233 21.979 42.7324C22.7455 42.7394 23.2429 43.21 23.2282 43.8902C23.2146 44.5435 22.7248 44.9914 21.983 44.9945C20.0199 45.0015 18.0567 45.0015 16.0935 44.9945C15.327 44.9914 14.8292 44.5168 14.8438 43.8371C14.8575 43.1838 15.3477 42.7394 16.09 42.7324C17.0711 42.7233 18.0527 42.7303 19.0342 42.7303Z" fill="#1E7B7D"/>
<path fill-rule="evenodd" clip-rule="evenodd" d="M2.27256 24.8144C2.27369 25.1088 2.15918 25.3918 1.95369 25.6026C1.74819 25.8134 1.46814 25.935 1.17383 25.9414C0.557817 25.9535 -0.000636948 25.4122 0.00239264 24.8058C0.00592716 24.1974 0.565896 23.6621 1.18191 23.6793C1.47626 23.6876 1.75554 23.8113 1.95956 24.0236C2.16358 24.2359 2.27599 24.5199 2.27256 24.8144Z" fill="#1E7B7D"/>
<path fill-rule="evenodd" clip-rule="evenodd" d="M2.27253 31.1396C2.28263 31.7819 1.77921 32.2959 1.143 32.2919C0.547685 32.2883 0.0185169 31.7728 0.0023591 31.1825C-0.0137987 30.5802 0.540111 30.0268 1.15562 30.0303C1.44993 30.0321 1.73176 30.1494 1.94053 30.3568C2.1493 30.5643 2.26883 30.8453 2.27253 31.1396Z" fill="#1E7B7D"/>
<path fill-rule="evenodd" clip-rule="evenodd" d="M2.27256 37.5346C2.26246 38.1496 1.76763 38.6404 1.15565 38.6434C0.539633 38.6464 -0.0142764 38.0925 0.00289126 37.4901C0.019554 36.8994 0.549227 36.3848 1.14404 36.3813C1.78025 36.3778 2.28367 36.8923 2.27256 37.5346Z" fill="#1E7B7D"/>
</g>
<defs>
<clipPath id="clip0_1_78">
<rect width="50" height="45" fill="white"/>
</clipPath>
</defs>
</svg>
