<svg width="580" height="476" viewBox="0 0 580 476" fill="none" xmlns="http://www.w3.org/2000/svg">
<g clip-path="url(#clip0_14_2)">
<path fill-rule="evenodd" clip-rule="evenodd" d="M307.05 60.5926C298.652 61.6691 292.454 69.0009 292.214 77.5669C290.743 88.2287 289.973 111.94 293.973 115.128L316.547 112.236L316.54 112.105C324.792 110.046 330.424 101.798 329.365 92.7969L327.362 75.7653C326.224 66.0937 317.792 59.2158 308.528 60.4028L307.049 60.5936L307.05 60.5926Z" fill="#191847"/>
<path fill-rule="evenodd" clip-rule="evenodd" d="M294.534 73.0409C291.056 82.4042 294.214 104.621 300.227 105.443C302.626 105.771 307.398 103.603 312.067 99.7812L311.653 123.576L330.334 121.182L320.219 90.683C323.288 85.8246 325.083 80.1206 323.965 74.1315C320.749 56.876 298.012 63.6776 294.534 73.0409Z" fill="#B28B67"/>
<path fill-rule="evenodd" clip-rule="evenodd" d="M308.274 61.2624C299.26 62.4172 296.929 67.1642 294.944 71.1961C297.52 77.4584 304.663 77.5207 311.386 80.7683C312.071 80.0226 312.982 79.5472 313.964 79.4227C314.527 79.3508 315.098 79.3953 315.644 79.5537C316.19 79.7121 316.701 79.9812 317.147 80.3457C317.594 80.7103 317.967 81.163 318.246 81.6782C318.525 82.1934 318.704 82.7608 318.772 83.3482C318.912 84.5337 318.595 85.7287 317.891 86.6703C317.187 87.6118 316.153 88.223 315.018 88.3693L314.823 88.3894C315.098 98.1604 316.742 109.151 319.614 111.44L342.188 108.546C341.517 97.7386 338.706 94.3092 335.651 91.4763L335.261 91.1168C331.929 88.0841 328.405 85.4179 327.115 74.4528L326.677 74.1003L326.388 73.8673L325.96 73.5219L325.676 73.2969C325.348 73.0354 325.014 72.7809 324.676 72.5337L324.626 71.8971C319.732 64.036 314.282 60.4911 308.273 61.2614L308.274 61.2624Z" fill="#191847"/>
<path fill-rule="evenodd" clip-rule="evenodd" d="M352.051 185.927L322.588 291.672L308.731 371.068H294.822L308.707 185.927H352.052H352.051Z" fill="#B28B67"/>
<path fill-rule="evenodd" clip-rule="evenodd" d="M352.051 185.927L322.588 291.672L308.731 371.068H294.822L308.707 185.927H352.052H352.051Z" fill="black" fill-opacity="0.1"/>
<path fill-rule="evenodd" clip-rule="evenodd" d="M365.291 185.927C363.235 240.861 364.046 270.824 364.506 275.815C364.966 280.806 367.578 314.232 385.377 372.743H370.912C347.339 316.612 339.11 283.186 336.407 275.815C333.704 268.444 325.718 238.482 314.061 185.927H365.291Z" fill="#B28B67"/>
<path fill-rule="evenodd" clip-rule="evenodd" d="M352.683 185.927C345.02 222.314 331.765 280.398 312.919 360.177H292.577C291.074 278.291 297.465 224.397 308.534 185.927H352.682H352.683Z" fill="#69A1AC"/>
<path fill-rule="evenodd" clip-rule="evenodd" d="M365.394 185.927C363.381 240.861 368.598 294.981 384.761 361.033H363.055C339.44 305.738 322.514 251.884 310.947 185.927H365.393H365.394Z" fill="#89C5CC"/>
<path fill-rule="evenodd" clip-rule="evenodd" d="M387.44 383.634L386.641 370.232C381.968 371.655 376.115 371.096 369.081 368.556C361.435 374.197 351.787 378.029 340.139 380.053C339.964 380.083 339.798 380.152 339.651 380.254C339.503 380.356 339.378 380.489 339.283 380.645C339.189 380.801 339.127 380.976 339.101 381.159C339.076 381.342 339.088 381.528 339.137 381.706L340.346 386.148H385.843L387.44 383.634Z" fill="#191847"/>
<path fill-rule="evenodd" clip-rule="evenodd" d="M311.836 383.634L311.037 370.232C306.364 371.655 300.511 371.096 293.477 368.556C285.831 374.197 276.183 378.029 264.535 380.053C264.36 380.083 264.194 380.152 264.047 380.254C263.899 380.356 263.774 380.489 263.679 380.645C263.585 380.801 263.523 380.976 263.497 381.159C263.472 381.342 263.484 381.528 263.533 381.706L264.742 386.148H310.239L311.836 383.634Z" fill="#191847"/>
<path fill-rule="evenodd" clip-rule="evenodd" d="M384.597 167.385L371.057 171.247C387.556 199.134 397.299 215.448 400.283 220.189L400.475 220.495C400.78 220.974 400.997 221.304 401.126 221.485C404.044 225.538 402.109 233.497 401.476 237.661C404.007 238.084 404.887 236.639 405.689 234.991L405.86 234.636C406.831 232.609 407.851 230.461 411.746 231.177C413.124 231.43 414.467 231.8 415.781 232.172L416.342 232.331C421.192 233.706 425.656 234.888 430.042 230.024C430.747 229.242 431.147 226.928 428.498 225.951C421.899 223.513 412.074 218.766 410.399 216.767C408.113 214.04 399.513 197.579 384.597 167.385ZM279.256 190.041L258.209 213.891C251.899 217.122 246.77 220.592 242.822 224.297C241.953 225.518 241.057 227.814 245.369 226.573L245.933 226.412L246.497 226.255C250.451 225.16 254.347 224.355 255.165 225.669C256.059 227.107 253.758 229.514 255.37 231.373C256.447 232.612 259.637 228.31 264.942 218.461L287.295 202.976L279.255 190.041L279.256 190.041Z" fill="#B28B67"/>
<path fill-rule="evenodd" clip-rule="evenodd" d="M320.058 115.979L311.168 114.12C303.141 145.887 289.303 177.401 263.338 205.851L271.996 217.821C295.535 198.932 318.13 183.705 325.117 158.99C327.463 150.695 321.433 125.363 320.057 115.979H320.058Z" fill="#C5CFD6"/>
<path fill-rule="evenodd" clip-rule="evenodd" d="M359.425 197.444C335.272 203.294 316.01 205.764 301.639 204.851C299.858 204.738 299.225 201.724 299.788 199.551C308.572 165.715 313.887 136.491 311.255 114.108C313.704 115.029 317.763 114.694 323.431 113.103C341.644 134.181 351.882 159.735 359.425 197.444Z" fill="#ADD7DC"/>
<path fill-rule="evenodd" clip-rule="evenodd" d="M326.984 110.256L327.057 110.676L320.597 111.504C320.184 120.857 329.976 244.363 320.639 288.428L320.351 289.738L399.597 279.581C393.461 242.25 374.604 198.88 356.436 162.891C369.942 172.954 382.838 191.286 395.125 217.888L409.499 212.001C392.611 163.668 365.621 130.012 328.525 111.033L328.237 110.524L327.663 110.598L326.984 110.256Z" fill="#DDE3E9"/>
<path fill-rule="evenodd" clip-rule="evenodd" d="M144.509 140.477C149.317 149.842 148.746 173.595 142.531 175.269C140.052 175.936 134.773 174.301 129.4 170.918L132.772 195.849H112.856L119.711 162.459C115.888 157.771 113.301 152.026 113.734 145.586C114.979 127.031 139.7 131.113 144.509 140.477Z" fill="#B28B67"/>
<path fill-rule="evenodd" clip-rule="evenodd" d="M118.183 166.637C115.683 155.018 108.562 147.099 109.65 141.905C110.375 138.444 112.307 136.291 115.447 135.447C117.071 128.583 122.308 125.664 131.159 126.688C144.435 128.226 152.539 133.987 149.039 146.662C145.822 146.662 141.94 145.447 136.569 147.529C134.866 148.19 133.647 150.239 132.914 153.676H130.486C128.131 149.597 125.809 148.098 123.52 149.179C121.23 150.26 120.711 152.886 121.958 157.058L120.764 166.638H118.183V166.637Z" fill="#191847"/>
<path fill-rule="evenodd" clip-rule="evenodd" d="M76.8613 304.222H140.969L149.369 411.73H53.9391L76.8613 304.222Z" fill="#C5CFD6"/>
<path fill-rule="evenodd" clip-rule="evenodd" d="M76.8613 304.222H96.5783L108.379 411.73H53.9391L76.8613 304.222Z" fill="black" fill-opacity="0.1"/>
<path fill-rule="evenodd" clip-rule="evenodd" d="M214.057 285.805L214.295 285.659C221.156 281.644 232.359 287.097 232.351 293.159C232.328 311.508 216.3 397.989 215.463 403.456C214.626 408.923 205.661 410.367 205.14 403.474C204.674 397.332 203.985 382.723 203.741 367.969L203.716 366.388L203.705 365.598L203.686 364.02C203.575 353.773 203.707 343.817 204.309 336.963C204.904 330.18 205.57 323.403 206.309 316.635C197.9 332.502 184.893 355.224 167.287 384.796L157.73 380.235C165.235 354.401 171.389 336.163 176.192 325.522C184.414 307.3 192.125 291.697 195.371 286.2C200.476 277.553 209.362 280.571 214.057 285.805Z" fill="#B28B67"/>
<path fill-rule="evenodd" clip-rule="evenodd" d="M158.413 365.887L191.215 284.704C199.072 271.499 221.104 287.392 218.424 295.052C212.341 312.442 181.4 368.739 179.587 373.921L158.413 365.887Z" fill="#2F3676"/>
<path fill-rule="evenodd" clip-rule="evenodd" d="M157.444 374.406C154.913 376.495 153.298 378.17 152.601 379.431C151.853 380.785 150.975 382.892 149.97 385.749L190.504 410.179C193.569 407.177 194.047 404.845 191.937 403.187C190.18 401.812 188.44 400.414 186.717 398.992L172.431 378.431C172.404 378.394 172.371 378.362 172.333 378.338C172.295 378.315 172.253 378.299 172.209 378.292C172.165 378.286 172.12 378.288 172.078 378.3C172.035 378.312 171.994 378.333 171.959 378.361L168.644 381.024C165.977 380.783 163.987 380.266 162.674 379.474C161.457 378.741 160.036 377.104 158.409 374.564C158.358 374.484 158.292 374.417 158.215 374.365C158.137 374.314 158.051 374.279 157.96 374.265C157.869 374.25 157.777 374.255 157.688 374.279C157.599 374.303 157.516 374.347 157.444 374.406Z" fill="#E4E4E4"/>
<path fill-rule="evenodd" clip-rule="evenodd" d="M203.435 398.005C202.243 401.135 201.648 403.429 201.648 404.885C201.648 406.449 201.897 408.731 202.395 411.73H249.199C250.415 407.529 249.713 405.261 247.092 404.926C244.912 404.653 242.735 404.35 240.562 404.019L218.341 393.669C218.301 393.65 218.257 393.64 218.213 393.639C218.168 393.638 218.124 393.647 218.083 393.664C218.042 393.681 218.004 393.707 217.972 393.74C217.941 393.772 217.916 393.811 217.899 393.854L216.305 397.891C213.879 399.074 211.908 399.665 210.391 399.665C208.986 399.665 206.972 398.989 204.347 397.639C204.265 397.596 204.175 397.572 204.083 397.568C203.991 397.564 203.9 397.579 203.814 397.614C203.728 397.648 203.651 397.701 203.585 397.768C203.52 397.835 203.469 397.916 203.435 398.005Z" fill="#E4E4E4"/>
<path fill-rule="evenodd" clip-rule="evenodd" d="M234.65 299.397C234.65 322.43 224.18 376.157 224.175 381.23L201.648 381.248C204.945 333.306 206.114 309.078 205.155 308.562C203.717 307.787 146.195 314.562 128.944 314.562C104.067 314.562 93.7752 298.172 92.9402 267.809H142.221C152.255 268.931 204.593 279.96 224.03 283.752C232.351 285.375 234.65 293.051 234.65 299.397Z" fill="#5C63AB"/>
<path fill-rule="evenodd" clip-rule="evenodd" d="M216.216 217.01C217.618 216.709 219.806 215.488 222.046 214.194L222.922 213.685L223.505 213.347C226.505 211.612 229.305 210.075 230.099 210.802C232.336 212.85 230.342 219.14 227.992 222.269C223.599 228.116 219.962 230.116 210.973 232.734C206.274 234.104 201.192 236.848 195.729 240.967L195.008 227.702L207.661 220.44C209.436 213.383 211.558 209.832 214.027 209.787C215.924 208.866 212.621 217.783 216.216 217.01ZM194.44 186.781C192.117 191.089 189.859 195.729 191.042 197.057C192.225 198.385 195.178 196.53 196.589 198.735C197.531 200.205 192.488 202.528 181.463 205.702L160.534 225.723L149.898 213.795L178.701 197.314C183.491 191.371 188.21 186.756 192.858 183.468C194.279 182.848 196.764 182.473 194.44 186.781Z" fill="#997659"/>
<path fill-rule="evenodd" clip-rule="evenodd" d="M135.871 210.123C145.96 210.012 159.413 207.787 173.768 198.265L179.405 211.4C169.503 221.668 155.58 230.103 143.407 229.747C133.813 229.464 128.91 217.339 135.871 210.123Z" fill="#119A91"/>
<path fill-rule="evenodd" clip-rule="evenodd" d="M136.542 176.775C137.812 193.827 144.207 212.621 149.455 231.188C160.165 233.98 178.125 230.688 203.337 221.315C209.59 234.832 212.481 244.468 212.009 250.224C190.38 262.029 171.841 267.291 156.568 267.637C157.059 277.101 155.957 286.112 152.251 294.345C144.634 311.266 100.031 295.595 85.034 298.679C79.0238 278.285 84.2981 265.639 88.878 253.83L89.3051 252.726C91.709 246.479 93.8108 240.406 93.8166 233.473C93.831 211.144 110.991 176.775 113.517 176.775H136.542Z" fill="#40C0BB"/>
<path fill-rule="evenodd" clip-rule="evenodd" d="M254.32 42.3901C254.32 65.8025 236.139 84.7822 213.712 84.7822C191.286 84.7822 173.105 65.8025 173.105 42.3901C173.105 18.9777 191.286 -0.00201416 213.712 -0.00201416C236.139 -0.00201416 254.32 18.9777 254.32 42.3901Z" fill="#F2F2F2"/>
<path fill-rule="evenodd" clip-rule="evenodd" d="M216.011 8.79596C216.011 9.11101 215.951 9.42298 215.836 9.71405C215.72 10.0051 215.551 10.2696 215.337 10.4924C215.124 10.7151 214.871 10.8919 214.592 11.0124C214.313 11.133 214.014 11.195 213.712 11.195C213.411 11.195 213.112 11.133 212.833 11.0124C212.554 10.8919 212.301 10.7151 212.087 10.4924C211.874 10.2696 211.705 10.0051 211.589 9.71405C211.474 9.42298 211.414 9.11101 211.414 8.79596C211.414 8.15969 211.656 7.54947 212.087 7.09956C212.518 6.64964 213.103 6.39688 213.712 6.39688C214.322 6.39688 214.906 6.64964 215.337 7.09956C215.768 7.54947 216.011 8.15969 216.011 8.79596Z" fill="black" fill-opacity="0.1"/>
<path fill-rule="evenodd" clip-rule="evenodd" d="M183.831 42.3901C183.831 42.7052 183.771 43.0171 183.656 43.3082C183.54 43.5993 183.371 43.8637 183.157 44.0865C182.944 44.3093 182.691 44.486 182.412 44.6066C182.133 44.7271 181.834 44.7892 181.532 44.7892C181.231 44.7892 180.932 44.7271 180.653 44.6066C180.374 44.486 180.121 44.3093 179.907 44.0865C179.694 43.8637 179.525 43.5993 179.409 43.3082C179.294 43.0171 179.234 42.7052 179.234 42.3901C179.234 41.7538 179.477 41.1436 179.907 40.6937C180.338 40.2438 180.923 39.991 181.532 39.991C182.142 39.991 182.727 40.2438 183.157 40.6937C183.588 41.1436 183.831 41.7538 183.831 42.3901Z" fill="black" fill-opacity="0.1"/>
<path fill-rule="evenodd" clip-rule="evenodd" d="M248.19 42.3901C248.19 43.0264 247.948 43.6366 247.517 44.0865C247.086 44.5364 246.502 44.7892 245.892 44.7892C245.283 44.7892 244.698 44.5364 244.267 44.0865C243.836 43.6366 243.594 43.0264 243.594 42.3901C243.594 41.7538 243.836 41.1436 244.267 40.6937C244.698 40.2438 245.283 39.991 245.892 39.991C246.502 39.991 247.086 40.2438 247.517 40.6937C247.948 41.1436 248.19 41.7538 248.19 42.3901Z" fill="black" fill-opacity="0.1"/>
<path fill-rule="evenodd" clip-rule="evenodd" d="M216.011 75.9843C216.011 76.2993 215.951 76.6113 215.836 76.9024C215.72 77.1934 215.551 77.4579 215.337 77.6807C215.124 77.9035 214.871 78.0802 214.592 78.2007C214.313 78.3213 214.014 78.3834 213.712 78.3834C213.411 78.3834 213.112 78.3213 212.833 78.2007C212.554 78.0802 212.301 77.9035 212.087 77.6807C211.874 77.4579 211.705 77.1934 211.589 76.9024C211.474 76.6113 211.414 76.2993 211.414 75.9843C211.414 75.348 211.656 74.7378 212.087 74.2879C212.518 73.838 213.103 73.5852 213.712 73.5852C214.322 73.5852 214.906 73.838 215.337 74.2879C215.768 74.7378 216.011 75.348 216.011 75.9843Z" fill="black" fill-opacity="0.1"/>
<path fill-rule="evenodd" clip-rule="evenodd" d="M213.712 13.5951L215.245 41.5908H212.18L213.712 13.5951Z" fill="#AFB9C5"/>
<path fill-rule="evenodd" clip-rule="evenodd" d="M227.272 56.5456L213.186 44.1023L215.353 41.8408L227.271 56.5456H227.272Z" fill="#AFB9C5"/>
<path fill-rule="evenodd" clip-rule="evenodd" d="M216.777 42.3901C216.777 43.2387 216.454 44.0525 215.88 44.6525C215.305 45.2525 214.525 45.5896 213.712 45.5896C212.9 45.5896 212.12 45.2525 211.545 44.6525C210.971 44.0525 210.648 43.2387 210.648 42.3901C210.648 41.5416 210.971 40.7278 211.545 40.1278C212.12 39.5278 212.9 39.1907 213.712 39.1907C214.525 39.1907 215.305 39.5278 215.88 40.1278C216.454 40.7278 216.777 41.5416 216.777 42.3901Z" fill="#C5CFD6"/>
</g>
<g clip-path="url(#clip1_14_2)">
<g opacity="0.7">
<path fill-rule="evenodd" clip-rule="evenodd" d="M467.194 256.706C473.833 256.358 482.043 260.277 482.752 267.576C483.266 272.88 483.107 278.169 483.903 283.465C484.54 287.696 485.887 291.759 487.723 295.614C489.489 299.322 493.152 302.477 494.105 306.438C494.712 308.961 494.373 312.511 493.535 314.98C492.517 317.981 493.057 317.744 495.087 320.262C499.064 325.197 502.645 330.258 505.177 336.152C508.824 344.641 511.215 354.565 509.862 363.857C509.689 365.038 509.485 369.273 507.879 369.568C506.084 369.899 506.923 367.477 507.019 366.695C507.63 361.703 508.172 357.34 507.436 352.27C504.594 332.708 490.719 319.82 481.686 303.217C481.189 302.361 480.141 300.322 479.412 298.977C478.261 296.854 477.104 292.813 475.546 291.239C472.612 288.272 475.309 294.236 475.881 295.374C476.604 296.814 477.399 298.345 478.14 299.607C481.53 305.456 485.312 311.84 488.814 317.869C473.674 321.359 463.011 302.949 458.948 290.845C455.601 280.874 451.596 257.56 467.194 256.706Z" fill="#69A1AC"/>
<path fill-rule="evenodd" clip-rule="evenodd" d="M556.176 238.188C545.078 239.079 537.953 246.486 534.637 256.847C532.849 262.43 532.644 268.166 531.651 273.904C530.156 282.536 526.941 289.078 520.657 295.228C518.711 297.133 517.277 299.088 516.257 301.181C514.233 303.27 512.472 305.634 511.177 308.524C509.524 312.215 509.056 316.644 510.965 320.323C511.478 321.313 512.758 323.298 514.086 324.201C509.117 334.903 506.385 346.625 506.693 358.333C506.879 365.399 507.22 372.469 507.618 379.528C507.725 381.423 508.336 384.552 509.252 381.374C510.091 378.467 509.039 373.903 508.942 370.866C508.468 356.07 508.063 342.617 514.085 328.794C514.719 327.342 515.386 325.905 516.083 324.482C516.124 324.458 516.162 324.429 516.2 324.401C516.227 324.422 516.251 324.444 516.278 324.465C516.322 324.384 516.383 324.289 516.454 324.182C516.654 323.973 516.829 323.71 516.995 323.415C517.529 322.666 518.133 321.786 518.137 321.305C518.137 321.301 518.135 321.296 518.135 321.292C521.862 315.137 526.132 309.322 530.493 303.62C530.46 303.661 535.223 297.101 534.487 300.729C534.132 302.477 530.629 305.806 529.213 307.658C526.083 311.778 522.407 316.998 519.353 322.045C518.942 322.284 518.361 323.457 517.941 324.331C517.709 324.774 517.493 325.22 517.28 325.609C528.104 329.225 536.523 321.939 542.264 313.466L542.283 313.436C544.031 311.094 545.82 308.769 548.056 306.918C551.786 303.83 555.781 303.285 560.179 301.765C572.173 297.62 577.272 281.898 578.891 270.232C580.719 257.072 571.781 236.891 556.177 238.188" fill="#89C5CC"/>
<path fill-rule="evenodd" clip-rule="evenodd" d="M534.253 201.332C522.862 213.324 517.36 229.955 513.002 245.591C508.135 263.054 504.92 280.787 504.797 298.943C504.716 310.872 504.395 322.876 505.084 334.791C505.328 339.023 505.745 343.262 506.408 347.447C506.463 347.792 507.947 357.139 509.366 354.961C510.173 353.722 507.845 345.265 507.669 343.856C506.68 335.922 506.45 327.929 506.498 319.938C506.577 306.78 506.194 293.69 507.512 280.581C507.709 278.624 507.864 276.568 508.324 274.653C508.812 272.617 508.19 273.506 509.78 272.701C511.324 271.917 513.234 272.029 514.836 271.046C521.193 267.147 524.445 257.132 526.976 250.56C529.871 243.046 531.63 235.033 533.035 227.125C534.068 221.315 534.805 215.54 535.223 209.654C535.354 207.8 535.362 205.861 535.722 204.037C535.82 203.545 536.306 202.674 536.289 202.239C536.251 201.317 535.701 200.775 535.657 200C535.179 200.434 534.711 200.878 534.253 201.332Z" fill="#89C5CC"/>
<path fill-rule="evenodd" clip-rule="evenodd" d="M472.143 361.094C472.143 380.925 488.037 397 507.642 397C527.248 397 543.141 380.925 543.141 361.094" fill="#89C5CC"/>
<path fill-rule="evenodd" clip-rule="evenodd" d="M531.97 329.657C540.756 329.002 550.567 336.171 554.805 343.631C558.222 349.647 557.646 357.545 555.536 363.936C554.123 368.215 551.039 374.314 545.896 374.374C539.461 374.448 539.151 366.404 539.027 361.702C538.861 355.45 538.08 350.004 533.21 345.743C532.075 344.75 530.834 343.876 529.688 342.898L529.171 342.458L528.912 342.236C527.361 340.897 525.875 339.434 525.677 337.261C525.358 333.764 527.309 333.135 530.289 333.784C530.797 333.895 535.915 336.218 535.157 334.382C534.925 333.821 534.081 333.377 533.014 333.044C530.255 332.74 526.964 332.388 526.018 332.599C515.808 334.864 511.833 349.169 510.777 358.257C510.665 359.239 510.569 360.223 510.49 361.209H508.615C508.745 358.828 508.917 356.452 509.31 354.098C510.815 345.095 515.52 331.873 525.839 330.412C526.22 330.358 527.62 330.348 529.317 330.449C530.132 329.988 531.038 329.718 531.97 329.657Z" fill="#69A1AC"/>
</g>
</g>
<defs>
<clipPath id="clip0_14_2">
<rect width="455" height="476" fill="white"/>
</clipPath>
<clipPath id="clip1_14_2">
<rect width="125" height="197" fill="white" transform="translate(455 200)"/>
</clipPath>
</defs>
</svg>
