<svg width="45" height="45" viewBox="0 0 45 45" fill="none" xmlns="http://www.w3.org/2000/svg">
<g clip-path="url(#clip0_1_67)">
<path fill-rule="evenodd" clip-rule="evenodd" d="M36.7551 21.194C37.0173 20.8115 37.2466 20.4759 37.4768 20.1409C39.4259 17.3081 41.2741 14.4162 42.6649 11.2576C43.242 9.94688 43.6668 8.60997 43.3997 7.14089C42.5291 2.35572 37.2573 0.00805532 33.1323 2.57925C30.7518 4.06295 29.3281 7.23895 30.3793 10.0066C30.8699 11.2987 31.4598 12.5601 32.0939 13.7898C33.4226 16.3665 35.0555 18.7571 36.7551 21.194ZM45.0001 8.881C43.8136 13.7362 40.9254 17.6952 38.2214 21.7507C37.9863 22.1036 37.7333 22.445 37.4823 22.7867C37.0234 23.4125 36.4694 23.432 36.0339 22.787C34.6839 20.7883 33.2822 18.8183 32.0454 16.7502C31.007 15.0131 30.1162 13.1804 29.2599 11.3435C28.2043 9.07986 28.229 6.77544 29.3923 4.54503C30.6942 2.04905 32.7565 0.561701 35.543 0.0957616C35.6231 0.0826666 35.6977 0.0378998 35.7751 0.00744629H37.708C37.7567 0.0342454 37.8033 0.0765759 37.8554 0.0854074C41.5034 0.710923 43.792 2.83354 44.7869 6.37863C44.8722 6.68165 44.9297 6.99258 45.0001 7.29955V8.881Z" fill="#1E7B7D"/>
<path fill-rule="evenodd" clip-rule="evenodd" d="M8.26479 41.445C8.85498 40.5783 9.41441 39.777 9.95344 38.9621C11.5434 36.5587 13.0585 34.1096 14.1847 31.4483C14.512 30.6748 14.8367 29.858 14.9314 29.0348C15.4415 24.5917 11.1219 20.9059 6.76252 21.9203C3.11601 22.769 0.36727 26.8687 2.08485 30.8849C3.69462 34.649 5.92048 38.0342 8.26479 41.445ZM0.000304536 28.3164C0.0609071 24.19 3.39314 20.6501 7.49066 20.2813C11.5912 19.9125 15.3772 22.6262 16.3249 26.6948C16.7242 28.4087 16.4041 30.0209 15.7646 31.6112C14.6025 34.5013 12.9653 37.1288 11.2748 39.7243C10.5412 40.8511 9.75701 41.9444 8.98167 43.0438C8.55349 43.651 7.98614 43.655 7.55431 43.0532C5.21791 39.7971 3.00485 36.4634 1.28514 32.83C0.729058 31.6548 0.249719 30.4476 0.0700432 29.146C0.0319762 28.8716 0.0225356 28.5933 0 28.3167" fill="#1E7B7D"/>
<path fill-rule="evenodd" clip-rule="evenodd" d="M9.78442 44.9596V43.4924H10.2729C12.2929 43.4924 14.3132 43.5174 16.3325 43.4866C19.5152 43.4388 21.9859 42.087 23.6396 39.3413C24.4435 38.0062 24.7459 36.5334 24.742 34.9803C24.7368 33.0636 24.7286 31.1453 24.7999 29.2307C24.9055 26.3955 27.333 23.7277 30.1247 23.1939C31.5992 22.9122 32.9995 23.2207 34.4159 23.5036C35.2427 23.6683 36.068 23.841 36.9094 24.0134L36.6067 25.4956C35.4485 25.2635 34.3151 25.0631 33.1947 24.8058C31.408 24.3953 29.7346 24.5445 28.2569 25.7237C27.0114 26.7183 26.3253 28.0269 26.2899 29.6217C26.2504 31.4209 26.3058 33.2225 26.2705 35.0223C26.1882 39.2463 24.2587 42.3166 20.4429 44.1605C19.3953 44.667 18.2639 44.9505 17.1021 44.9694C14.7173 45.0084 12.3309 44.9858 9.94552 44.9877C9.9035 44.9877 9.86208 44.9736 9.78442 44.9596Z" fill="#1E7B7D"/>
<path fill-rule="evenodd" clip-rule="evenodd" d="M39.7334 8.27558C39.7413 6.62652 38.4099 5.28078 36.7638 5.27408C35.1285 5.26768 33.7596 6.62622 33.7596 8.25518C33.7596 9.87226 35.1562 11.2634 36.7642 11.2482C38.3831 11.2329 39.7255 9.88871 39.7334 8.27558ZM36.7492 3.74957C39.2077 3.74714 41.2423 5.77474 41.2579 8.24269C41.2737 10.6991 39.2409 12.7431 36.7766 12.7489C34.2688 12.755 32.2561 10.7493 32.2585 8.24635C32.261 5.77443 34.2807 3.75201 36.7492 3.74957Z" fill="#1E7B7D"/>
<path fill-rule="evenodd" clip-rule="evenodd" d="M8.2675 31.4702C9.90286 31.4702 11.2632 30.1157 11.2577 28.4934C11.2516 26.8711 9.87697 25.501 8.26019 25.5059C6.6291 25.5111 5.28031 26.8678 5.28305 28.5007C5.28549 30.1482 6.61448 31.4705 8.2675 31.4702ZM3.75977 28.4374C3.83072 25.8458 5.89882 23.8995 8.51905 24.0033C10.835 24.0953 12.9068 26.1811 12.7655 28.8199C12.6458 31.0512 10.5262 33.0593 8.22608 33.0127C5.7362 32.9622 3.69307 30.8694 3.75977 28.4374Z" fill="#1E7B7D"/>
</g>
<defs>
<clipPath id="clip0_1_67">
<rect width="45" height="45" fill="white"/>
</clipPath>
</defs>
</svg>
