<svg width="782" height="558" viewBox="0 0 782 558" fill="none" xmlns="http://www.w3.org/2000/svg">
<g clip-path="url(#clip0_1_224)">
<path fill-rule="evenodd" clip-rule="evenodd" d="M79.3968 59.608C207.386 38.8302 298.716 25.7586 353.387 20.3939C392.319 16.5744 454.548 9.19174 544.284 4.23694C562.301 3.24345 606.957 1.84014 678.251 0.0308911C726.232 -1.1879 767.474 33.7919 774.054 81.287L780.018 124.334C782.365 177.185 782.365 243.758 780.018 324.055C778.579 373.289 775.825 422.477 771.759 471.565C767.494 523.035 722.541 561.477 670.977 557.75C524.616 547.173 424.608 538.246 370.953 530.97C316.021 523.521 219.279 505.545 80.7277 477.041C37.6773 468.184 6.46076 430.79 5.47403 386.893L0.246813 154.707C-0.809908 107.723 32.9604 67.146 79.3968 59.608Z" fill="#F2FBFC"/>
</g>
<defs>
<clipPath id="clip0_1_224">
<rect width="782" height="558" fill="white"/>
</clipPath>
</defs>
</svg>
